# xmcd
#
# Track frame offsets: 
#        150
#        4140
#        20597
#        33960
#        50550
#        72762
#        84700
#        112675
#        134475
#        149375
#        178217
#
# Disc length: 2677 seconds
#
# Revision: 0
# Processed by: cddbd v1.5.2PL0 Copyright (c) Steve Scherf et al.
# Submitted via: ExactAudioCopyFreeDBPlugin 1.0
#
DISCID=940a730b
DTITLE=Chris Issaak - Heart full of soul - CD 01
DYEAR=1991
DGENRE=Soul
TTITLE0=Intro
TTITLE1=Dancin'
TTITLE2=Lovers game
TTITLE3=You owe me some kind of love
TTITLE4=Wicked game
TTITLE5=Gone Ridn'
TTITLE6=Wild love
TTITLE7=Blue spanish Sky
TTITLE8=Don't let me dream about you
TTITLE9=Beautiful Homes
TTITLE10=Diddley daddy
EXTD=
EXTT0=
EXTT1=
EXTT2=
EXTT3=
EXTT4=
EXTT5=
EXTT6=
EXTT7=
EXTT8=
EXTT9=
EXTT10=
PLAYORDER=
